# xmcd CD database file
#
# Track frame offsets:
#	150
#	14519
#	29627
#	50087
#	67113
#	80971
#	97882
#	113083
#	129318
#	145968
#	173131
#
# Disc length: 3143 seconds
#
# Revision: 0
# Processed by: cddbd v1.5PL3 Copyright (c) Steve Scherf et al.
# Submitted via: CDex 1.50beta8
#
DISCID=9e0c450b
DTITLE=40 Below Summer - the Mourning After
DYEAR=2003
DGENRE=Nu Metal
TTITLE0=Self Medicate
TTITLE1=Taxi Cab Confession
TTITLE2=Rain
TTITLE3=Breathless
TTITLE4=Better Life
TTITLE5=Monday Song
TTITLE6=F.E
TTITLE7=Awakening
TTITLE8=Alienation
TTITLE9=A Season in Hell
TTITLE10=Training Day
EXTD=YEAR: 2003
EXTT0=
EXTT1=
EXTT2=
EXTT3=
EXTT4=
EXTT5=
EXTT6=
EXTT7=
EXTT8=
EXTT9=
EXTT10=
PLAYORDER=
